<svg xmlns="http://www.w3.org/2000/svg" width="27.376" height="27.376" viewBox="0 0 27.376 27.376">
  <g id="vuesax_bold_textalign-justifycenter" data-name="vuesax/bold/textalign-justifycenter" transform="translate(-364 -188)">
    <g id="textalign-justifycenter" transform="translate(364 188)">
      <path id="Vector" d="M21.387,1.711H.855A.862.862,0,0,1,0,.855.862.862,0,0,1,.855,0H21.387a.862.862,0,0,1,.855.855A.862.862,0,0,1,21.387,1.711Z" transform="translate(2.566 4.277)" fill="#ffffff"/>
      <path id="Vector-2" data-name="Vector" d="M21.387,1.711H.855A.862.862,0,0,1,0,.855.862.862,0,0,1,.855,0H21.387a.862.862,0,0,1,.855.855A.862.862,0,0,1,21.387,1.711Z" transform="translate(2.566 9.981)" fill="#ffffff"/>
      <path id="Vector-3" data-name="Vector" d="M21.387,1.711H.855A.862.862,0,0,1,0,.855.862.862,0,0,1,.855,0H21.387a.862.862,0,0,1,.855.855A.862.862,0,0,1,21.387,1.711Z" transform="translate(2.566 15.684)" fill="#ffffff"/>
      <path id="Vector-4" data-name="Vector" d="M21.387,1.711H.855A.862.862,0,0,1,0,.855.862.862,0,0,1,.855,0H21.387a.862.862,0,0,1,.855.855A.862.862,0,0,1,21.387,1.711Z" transform="translate(2.566 21.387)" fill="#ffffff"/>
      <path id="Vector-5" data-name="Vector" d="M0,0H27.376V27.376H0Z" transform="translate(27.376 27.376) rotate(180)" fill="none" opacity="0"/>
    </g>
  </g>
</svg>
