<svg xmlns="http://www.w3.org/2000/svg" width="89.778" height="24.988" viewBox="0 0 89.778 24.988">
  <g id="logo-cyeta" transform="translate(-263.505 -162.195)">
    <g id="Group_15" data-name="Group 15" transform="translate(263.505 162.195)">
      <g id="Group_14" data-name="Group 14" transform="translate(10.432 5.161)">
        <path id="Path_16" data-name="Path 16" d="M284.991,920.965a8.457,8.457,0,0,1-3.782-.778,5.225,5.225,0,0,1-2.39-2.4,9.247,9.247,0,0,1-.819-4.151c0-2.485.614-4.329,1.83-5.53a7.027,7.027,0,0,1,5.161-1.8,8.228,8.228,0,0,1,3.263.615,5.109,5.109,0,0,1,2.28,1.857,5.473,5.473,0,0,1,.833,3.127h-3.1a3.258,3.258,0,0,0-.41-1.68,2.723,2.723,0,0,0-1.133-1.051,3.741,3.741,0,0,0-1.707-.355,4.205,4.205,0,0,0-2.185.519,2.948,2.948,0,0,0-1.256,1.516,6.516,6.516,0,0,0-.41,2.458v.642a6.567,6.567,0,0,0,.41,2.485,3.084,3.084,0,0,0,1.256,1.516,4.1,4.1,0,0,0,2.157.505,4.375,4.375,0,0,0,1.8-.355,2.56,2.56,0,0,0,1.174-1.038,3.189,3.189,0,0,0,.41-1.679h3a5.578,5.578,0,0,1-.819,3.127,4.915,4.915,0,0,1-2.267,1.857A8.436,8.436,0,0,1,284.991,920.965Z" transform="translate(-278 -906.3)" fill="#ffffff"/>
        <path id="Path_17" data-name="Path 17" d="M387.2,922.187v-5.708L381.7,908h3.577l3.509,5.708h.109l3.5-5.708h3.373l-5.462,8.479v5.708Z" transform="translate(-367.54 -907.768)" fill="#ffffff"/>
        <path id="Path_18" data-name="Path 18" d="M497.7,922.187V908h11.333v2.526H500.8v3.168h7.278v2.5H500.8v3.455h8.357v2.54Z" transform="translate(-467.701 -907.768)" fill="#ffffff"/>
        <path id="Path_19" data-name="Path 19" d="M597.947,922.187V910.581H593.4V908h12.221v2.594h-4.574V922.2h-3.1Z" transform="translate(-550.334 -907.768)" fill="#ffffff"/>
        <path id="Path_20" data-name="Path 20" d="M674.9,922.187,680.362,908h3.81l5.462,14.187H686.3l-1.011-2.786h-6.185l-1.01,2.786Zm5.079-5.271h4.41l-1.256-3.5c-.055-.15-.123-.341-.191-.546s-.15-.451-.232-.71-.164-.519-.232-.778-.15-.492-.219-.7h-.123c-.068.259-.164.574-.273.915s-.218.683-.328,1.01-.2.587-.273.792Z" transform="translate(-620.706 -907.768)" fill="#ffffff"/>
      </g>
      <path id="Path_21" data-name="Path 21" d="M206.57,868.5H208.6v.178a17.118,17.118,0,0,0,0,24.633v.164H206.57a17.651,17.651,0,0,1-4.97-12.48A17.417,17.417,0,0,1,206.57,868.5Z" transform="translate(-201.6 -868.5)" fill="#ffffff"/>
      <path id="Path_22" data-name="Path 22" d="M814.8,881.094a17.574,17.574,0,0,1-5,12.48H807.8v-.164a17.118,17.118,0,0,0,0-24.632V868.6h2.034A17.413,17.413,0,0,1,814.8,881.094Z" transform="translate(-725.027 -868.586)" fill="#ffffff"/>
    </g>
  </g>
</svg>
